<?xml version="1.0" encoding="utf-8"?>
<!-- Generator: Adobe Illustrator 22.1.0, SVG Export Plug-In . SVG Version: 6.00 Build 0)  -->
<svg version="1.1" id="Layer_1" xmlns="http://www.w3.org/2000/svg" xmlns:xlink="http://www.w3.org/1999/xlink" x="0px" y="0px"
	 viewBox="0 0 512 512" style="enable-background:new 0 0 512 512;" xml:space="preserve">
<g>
	<path fill="#7971ea" d="M256,31C131.7,31,31,131.7,31,256s100.7,225,225,225s225-100.7,225-225S380.3,31,256,31z M256,118.1
		c44.1,0,79.8,35.7,79.8,79.8s-35.7,79.8-79.8,79.8s-79.8-35.7-79.8-79.8S211.9,118.1,256,118.1z M256,430.2
		c-53.3,0-101-24.1-132.9-61.9c17.1-32.1,50.4-54.3,89.4-54.3c2.2,0,4.4,0.4,6.4,1c11.8,3.8,24.1,6.3,37.1,6.3s25.4-2.4,37.1-6.3
		c2.1-0.6,4.3-1,6.4-1c38.9,0,72.3,22.1,89.4,54.3C357,406.1,309.3,430.2,256,430.2z"/>
</g>
</svg>
